<svg width="17" height="17" viewBox="0 0 17 17" fill="none" xmlns="http://www.w3.org/2000/svg">
<path d="M7.56787 2.13274C7.91496 1.32678 9.0577 1.32678 9.40478 2.13274L10.4422 4.54183C10.587 4.87801 10.9039 5.10823 11.2683 5.14203L13.8801 5.38427C14.7539 5.46531 15.107 6.55212 14.4478 7.13127L12.4772 8.86241C12.2022 9.10398 12.0812 9.47648 12.1616 9.83355L12.7383 12.3924C12.9313 13.2484 12.0068 13.9201 11.2522 13.4721L8.99689 12.1329C8.68217 11.946 8.29049 11.946 7.97577 12.1329L5.72042 13.4721C4.96589 13.9201 4.04139 13.2484 4.23432 12.3924L4.81103 9.83355C4.8915 9.47648 4.77047 9.10398 4.49548 8.86241L2.5249 7.13127C1.86563 6.55212 2.21876 5.46531 3.09253 5.38427L5.70431 5.14203C6.06877 5.10823 6.38564 4.87801 6.53041 4.54183L7.56787 2.13274Z" fill="#FFB802"/>
</svg>
